<?xml version="1.0" standalone="no"?>
<svg viewBox="0 0 200 200" xmlns="http://www.w3.org/2000/svg">
  <path fill="#AD72B6" d="M41.2,-69.9C55.5,-63.2,70.6,-56.3,80.2,-44.7C89.7,-33,93.7,-16.5,93.1,-0.4C92.5,15.8,87.3,31.6,77.6,43.1C68,54.6,54,61.9,40.3,70.5C26.6,79.2,13.3,89.1,-0.1,89.3C-13.6,89.6,-27.2,80.1,-39.3,70.5C-51.4,61,-62.1,51.5,-71.3,39.8C-80.5,28,-88.3,14,-89,-0.4C-89.7,-14.8,-83.3,-29.6,-75.5,-43.9C-67.8,-58.2,-58.6,-71.9,-45.8,-79.4C-33,-86.9,-16.5,-88.2,-1.5,-85.6C13.5,-83,27,-76.5,41.2,-69.9Z" transform="translate(100 100)" />
</svg>
