<?xml version="1.0" standalone="no"?>
<svg viewBox="0 0 200 200" xmlns="http://www.w3.org/2000/svg">
  <path fill="#8B72B6" d="M35.5,-55.8C44.8,-49.3,50.2,-37.3,58.8,-25C67.4,-12.6,79.1,0.2,78.8,12.2C78.4,24.2,66,35.3,53.3,41.4C40.6,47.5,27.6,48.7,16.8,47.3C6,45.9,-2.6,42,-9.4,37.5C-16.3,33.1,-21.4,28,-30.9,23.3C-40.3,18.6,-54.1,14.2,-58.3,6.4C-62.5,-1.4,-57.2,-12.6,-52.3,-24.1C-47.3,-35.6,-42.8,-47.5,-34.1,-54.3C-25.5,-61.1,-12.7,-62.7,0.2,-63C13.1,-63.3,26.2,-62.2,35.5,-55.8Z" transform="translate(100 100)" />
</svg>
