<?xml version="1.0" standalone="no"?>
<svg viewBox="0 0 200 200" xmlns="http://www.w3.org/2000/svg">
  <path fill="#8B72B6" d="M29.7,-48.3C39.2,-40.2,48.1,-33.1,59.2,-22.9C70.4,-12.7,83.8,0.7,82.1,11.7C80.4,22.8,63.5,31.6,50.6,40.4C37.6,49.1,28.6,57.8,16.8,64.7C5.1,71.5,-9.4,76.4,-20.3,71.9C-31.2,67.4,-38.5,53.5,-40.4,40.8C-42.3,28.1,-38.9,16.6,-37.9,7C-36.9,-2.7,-38.3,-10.4,-38.8,-21.2C-39.3,-32,-38.8,-45.9,-32.2,-55.3C-25.6,-64.7,-12.8,-69.7,-1.3,-67.6C10.1,-65.5,20.3,-56.4,29.7,-48.3Z" transform="translate(100 100)" />
</svg>
